PathFileType	4	(X/Y/Z)	./resultDataOpenSim/trcMotMarkerGrf/sub10/qtm-05-02.trc
DataRate	CameraRate	NumFrames	NumMarkers	Units	OrigDataRate	OrigDataStartFrame	OrigNumFrames
250.000000	250.000000	12	24	m	250.000000	1	530
Frame#	Time	L.Toe.Tip			R.Toe.Tip			L.Ankle.Lat			R.Ankle.Lat			L.Ankle.Med			R.Ankle.Med			L.Heel			R.Heel			L.Knee.Lat			R.Knee.Lat			L.Knee.Med			R.Knee.Med			L.Thigh.Upper			R.Thigh.Upper			L.ASIS			R.ASIS			V.Sacral			L.Acromium			R.Acromium			C7			L.Elbow			R.Elbow			L.Wrist.Lat			R.Wrist.Lat
		X1	Y1	Z1	X2	Y2	Z2	X3	Y3	Z3	X4	Y4	Z4	X5	Y5	Z5	X6	Y6	Z6	X7	Y7	Z7	X8	Y8	Z8	X9	Y9	Z9	X10	Y10	Z10	X11	Y11	Z11	X12	Y12	Z12	X13	Y13	Z13	X14	Y14	Z14	X15	Y15	Z15	X16	Y16	Z16	X17	Y17	Z17	X18	Y18	Z18	X19	Y19	Z19	X20	Y20	Z20	X21	Y21	Z21	X22	Y22	Z22	X23	Y23	Z23	X24	Y24	Z24

1	0	-1.5246938	0.037692297	-0.15921027	-0.98860497	0.088689428	0.055186954	-1.6495642	0.088013353	-0.19122472	-1.1288746	0.071721401	0.054769925	-1.6338072	0.11002605	-0.1098905	-1.0974589	0.1075793	-0.018686282	NaN	NaN	NaN	-1.1573975	0.037214032	-0.0094379492	-1.5062367	0.45011272	-0.2153517	-1.1837438	0.47008342	0.090172459	-1.504883	0.42325608	-0.095067324	-1.1458118	0.4833402	-0.031239808	-1.375085	0.82401208	-0.26114043	-1.3413497	0.85549487	0.12638929	-1.292667	0.9215684	-0.19770282	-1.2741358	0.93924812	0.04693983	-1.4808509	0.96125288	-0.061552145	-1.2879962	1.4026797	-0.23556478	-1.3281261	1.4104644	0.080478906	-1.3815945	1.4382056	-0.092210446	-1.3700998	1.0604703	-0.30684396	-1.5033352	1.1120725	0.11829434	-1.1615145	0.92366862	-0.2776761	-1.4679682	0.88758131	0.20511816
2	0.004	-1.5245443	0.037700188	-0.15935695	-0.97475224	0.091879571	0.055378023	-1.651659	0.08769218	-0.18985938	-1.114097	0.07166292	0.05675908	-1.634537	0.1097608	-0.10924586	-1.0847462	0.10774445	-0.017349713	NaN	NaN	NaN	-1.1427995	0.036006732	-0.0070674163	-1.5050729	0.44935935	-0.21491583	-1.179132	0.46835052	0.090620404	-1.5037767	0.4225252	-0.094632147	-1.141798	0.48149399	-0.031166995	-1.3726078	0.82290125	-0.26085701	-1.3365627	0.85407414	0.12673707	-1.2895109	0.91977114	-0.19759934	-1.2694978	0.9376389	0.046892314	-1.4768807	0.95979895	-0.060656763	-1.2832842	1.4010166	-0.23520447	-1.323945	1.4089189	0.080789168	-1.3771654	1.4365397	-0.092144564	-1.3641074	1.0584008	-0.30671612	-1.5006821	1.1117868	0.11817508	-1.1538358	0.92410933	-0.2762289	-1.4691437	0.88748941	0.20612165
3	0.008	-1.5243069	0.037730004	-0.15958252	-0.9610909	0.095070103	0.055632764	-1.6529373	0.087513062	-0.18884247	-1.0997244	0.071594362	0.058660812	-1.634971	0.10949568	-0.10864756	-1.0721972	0.10798345	-0.01603496	NaN	NaN	NaN	-1.1282845	0.034928525	-0.004633342	-1.5038739	0.44863592	-0.21449027	-1.1744319	0.46665539	0.091082811	-1.5025975	0.42179109	-0.094169711	-1.1377529	0.47960326	-0.031100788	-1.3701848	0.82177283	-0.26066841	-1.3317204	0.8526557	0.12710632	-1.2862758	0.91796713	-0.19747253	-1.264852	0.93601766	0.046835369	-1.4728916	0.95832063	-0.059728678	-1.2785461	1.3993287	-0.23486149	-1.3197814	1.4073582	0.081083373	-1.3727218	1.4348701	-0.092064871	-1.3580901	1.0563244	-0.30661362	-1.498445	1.1115007	0.11834388	-1.1461447	0.92454316	-0.27475048	-1.4696701	0.88738449	0.20724023
4	0.012	-1.524014	0.037777727	-0.15985763	-0.94772585	0.098264387	0.055968591	-1.653296	0.087479819	-0.18822583	-1.0858916	0.071570643	0.060445227	-1.634923	0.10927068	-0.10811708	-1.0598975	0.1083389	-0.014749071	NaN	NaN	NaN	-1.1139941	0.034052156	-0.0021724738	-1.5026167	0.44794679	-0.21407423	-1.1696167	0.4650045	0.091575749	-1.5013355	0.42106266	-0.093665721	-1.1336472	0.47764558	-0.031051517	-1.3677984	0.82061964	-0.26054467	-1.326752	0.85121806	0.12750017	-1.2829413	0.91615772	-0.19732488	-1.2601803	0.93437409	0.046758177	-1.4688663	0.95679644	-0.058755045	-1.2737653	1.3975993	-0.23453293	-1.3156294	1.4057633	0.081372083	-1.3682458	1.433211	-0.091924265	-1.3519975	1.0542195	-0.30655457	-1.4968499	1.1111341	0.118836	-1.1384674	0.92494305	-0.27325831	-1.4695523	0.88726908	0.20843984
5	0.016	-1.5238483	0.037804493	-0.16002017	-0.93470688	0.10145247	0.056330109	-1.6531588	0.087513305	-0.18782718	-1.0725398	0.071658207	0.062129067	-1.6344953	0.10911691	-0.10762835	-1.0478957	0.10880838	-0.013493967	NaN	NaN	NaN	-1.1001377	0.033390196	0.0001994363	-1.5012914	0.44728813	-0.21366171	-1.1647001	0.46339798	0.092113493	-1.4999897	0.42037059	-0.093135452	-1.129473	0.47562917	-0.031021865	-1.3653828	0.81944731	-0.26038085	-1.3216309	0.84973373	0.12790051	-1.2795282	0.91436519	-0.19717418	-1.2554975	0.93270373	0.046646334	-1.4648031	0.9552199	-0.057739328	-1.2689515	1.3958284	-0.23420372	-1.3114298	1.4041361	0.081676857	-1.3637395	1.4315717	-0.091711245	-1.3458132	1.0520788	-0.30652402	-1.4955427	1.1105976	0.11937579	-1.1308813	0.92528102	-0.27180777	-1.469179	0.88715633	0.209612
6	0.02	-1.5240008	0.037763927	-0.15989836	-0.92201308	0.10462397	0.056633609	-1.6529225	0.08756044	-0.18746177	-1.0595774	0.07187455	0.063738973	-1.6340789	0.10901663	-0.1071256	-1.0362224	0.10936572	-0.012270003	NaN	NaN	NaN	-1.0868604	0.032929484	0.0023797676	-1.4999008	0.44665512	-0.21324639	-1.1596724	0.46185198	0.092716165	-1.4985262	0.41973366	-0.092614119	-1.1252323	0.47358045	-0.030996256	-1.3628872	0.81826234	-0.26012112	-1.3164091	0.84818217	0.12828706	-1.276074	0.91260338	-0.1970456	-1.250838	0.93100574	0.046493615	-1.460716	0.95359169	-0.056692508	-1.2641191	1.3940264	-0.23385975	-1.3071199	1.4024906	0.082012185	-1.3592161	1.4299432	-0.091472137	-1.3395599	1.0499139	-0.30648275	-1.4937959	1.1098546	0.11966365	-1.1234202	0.92555811	-0.27041491	-1.4688272	0.88706088	0.21070033
7	0.024	-1.5244469	0.037657614	-0.15951418	-0.90959163	0.10775673	0.056845895	-1.6527529	0.08761555	-0.18705018	-1.0469775	0.072202342	0.065286028	-1.6340232	0.1089338	-0.10657691	-1.0249031	0.10998664	-0.011076126	NaN	NaN	NaN	-1.0741744	0.032642599	0.0043405893	-1.4984688	0.44603461	-0.21281633	-1.1545534	0.46037134	0.093392043	-1.4969498	0.41912972	-0.092120941	-1.1209276	0.47153145	-0.030943679	-1.3603031	0.81706563	-0.25977878	-1.3111596	0.84655847	0.12865182	-1.272662	0.91084059	-0.19698497	-1.2461744	0.92928482	0.04631753	-1.4566279	0.95190749	-0.05562871	-1.2592669	1.3922099	-0.23349312	-1.3027057	1.4008318	0.082376458	-1.3546793	1.428316	-0.091236311	-1.3332662	1.0477395	-0.30641101	-1.4912807	1.1089681	0.11961349	-1.1160321	0.92580132	-0.26903407	-1.4685648	0.88698995	0.21172092
8	0.028	-1.5249449	0.037542516	-0.15908797	-0.89748494	0.11077365	0.056994604	-1.6526651	0.087695224	-0.18659488	-1.0347704	0.072616289	0.066766425	-1.6343142	0.10886123	-0.10600073	-1.0139599	0.11065296	-0.0099160118	NaN	NaN	NaN	-1.0619698	0.032483028	0.0061632609	-1.4970187	0.44541591	-0.21235883	-1.1494052	0.45894263	0.094125117	-1.4953454	0.41852378	-0.091635193	-1.1165594	0.46951193	-0.03082882	-1.3576433	0.81585726	-0.25938192	-1.3059028	0.84487762	0.12899992	-1.2693626	0.90903797	-0.1970256	-1.2414169	0.92754942	0.046147041	-1.4525443	0.95016177	-0.054545054	-1.254376	1.3903969	-0.23310146	-1.2982259	1.3991606	0.08275268	-1.3501187	1.4266882	-0.09098901	-1.3269557	1.0455698	-0.30632765	-1.4883228	1.1081384	0.11932079	-1.1086531	0.92603512	-0.26762284	-1.4683127	0.88693556	0.21272594
9	0.032	-1.5252914	0.03746808	-0.1588011	-0.88586376	0.11356215	0.057112152	-1.6526254	0.087817868	-0.18612988	-1.0229905	0.073088921	0.068181104	-1.6346013	0.10883035	-0.10544587	-1.0034022	0.11134707	-0.0087983704	NaN	NaN	NaN	-1.0501027	0.032418216	0.0079787823	-1.4955371	0.44480517	-0.21187685	-1.1442156	0.45758631	0.094907471	-1.4938258	0.41789479	-0.091109908	-1.1121274	0.467556	-0.030617125	-1.3549164	0.81464076	-0.25893922	-1.30062	0.84316035	0.12934378	-1.2661305	0.9072175	-0.19713579	-1.236546	0.92580567	0.045992264	-1.448446	0.94835776	-0.053415626	-1.2494242	1.3885995	-0.2326787	-1.2937038	1.3974821	0.083127812	-1.3455256	1.4250662	-0.090715848	-1.3206512	1.0434212	-0.30626933	-1.4854597	1.1075972	0.11899404	-1.1012828	0.92625721	-0.26618387	-1.467933	0.8868838	0.21375234
10	0.036	-1.5254679	0.037436171	-0.15866449	-0.87486733	0.1160608	0.057194255	-1.652599	0.08799543	-0.18568655	-1.0116554	0.073595836	0.069547539	-1.6345193	0.10886684	-0.10495371	-0.99321856	0.11204695	-0.0077245551	NaN	NaN	NaN	-1.0385597	0.032453087	0.0098294691	-1.4939739	0.44421839	-0.21138465	-1.1388353	0.45637243	0.095763184	-1.4924403	0.41722457	-0.090517563	-1.1076264	0.46570703	-0.030276989	-1.3521156	0.81341716	-0.25843767	-1.2953018	0.84141616	0.12969047	-1.2628607	0.9054379	-0.19725472	-1.2316398	0.92405512	0.045841648	-1.444316	0.94650455	-0.052221931	-1.244397	1.3868164	-0.23220898	-1.2891507	1.3958016	0.083507673	-1.3408977	1.4234602	-0.090418699	-1.3143673	1.0413037	-0.30625218	-1.4829093	1.107368	0.11881314	-1.0939627	0.92644409	-0.26473816	-1.4673512	0.88683324	0.21479762
11	0.04	-1.5255525	0.037422893	-0.15860635	-0.86449021	0.11827418	0.057208918	-1.6525659	0.088233666	-0.18527965	-1.0007731	0.074118369	0.070891549	-1.6340288	0.10895221	-0.10453347	-0.98339668	0.11271748	-0.0066797586	NaN	NaN	NaN	-1.0274855	0.03259062	0.011703343	-1.4922867	0.44366399	-0.21089268	-1.1330434	0.45536904	0.096741059	-1.4910878	0.41651274	-0.089891368	-1.1030452	0.46400243	-0.029795055	-1.3492245	0.81218167	-0.25785743	-1.2899516	0.83964921	0.13003941	-1.2595084	0.90373301	-0.19735769	-1.2267607	0.92230156	0.045686664	-1.4401581	0.94461278	-0.050971669	-1.2392892	1.3850355	-0.23168048	-1.2845789	1.3941273	0.083914578	-1.3362334	1.4218753	-0.090101225	-1.3080966	1.039216	-0.30624468	-1.4804625	1.1072048	0.11876098	-1.0867257	0.92657723	-0.26330405	-1.4665885	0.88679594	0.21584061
12	0.044	-1.5256102	0.037408724	-0.15856971	-0.85463779	0.1202086	0.057137186	-1.6525232	0.088531813	-0.18490893	-0.99035061	0.074640446	0.072235366	-1.633449	0.1090555	-0.10416584	-0.97394818	0.11331035	-0.0056393331	NaN	NaN	NaN	-1.0170061	0.032813593	0.013702464	-1.490473	0.44313826	-0.21040822	-1.1267212	0.45458871	0.097874056	-1.4895775	0.41579806	-0.089299205	-1.0983708	0.46245859	-0.029186854	-1.346239	0.81092594	-0.25718578	-1.2845563	0.83787533	0.13039865	-1.2560917	0.90210293	-0.19745614	-1.221923	0.92055329	0.045528241	-1.4359806	0.94270102	-0.049673052	-1.2341146	1.3832492	-0.23110191	-1.2799981	1.3924718	0.084374132	-1.3315284	1.4203141	-0.089760841	-1.3018093	1.0371536	-0.30617881	-1.4778421	1.1068651	0.11872459	-1.0795925	0.92665732	-0.26190273	-1.4656937	0.88678252	0.21686592
